<?xml version="1.0" standalone="no"?>
<!DOCTYPE svg PUBLIC "-//W3C//DTD SVG 1.1//EN" "http://www.w3.org/Graphics/SVG/1.1/DTD/svg11.dtd">
<svg t="1776480000001" class="icon" viewBox="0 0 1024 1024" version="1.1" xmlns="http://www.w3.org/2000/svg" width="200" height="200">
  <path d="M256 400c0-22.1 17.9-40 40-40h108.7l149.3-120v524l-149.3-120H296c-22.1 0-40-17.9-40-40V400z" fill="#1296db"/>
  <path d="M680.2 352.5c-10.1-10.1-26.5-10.1-36.6 0-10.1 10.1-10.1 26.5 0 36.6l59.8 59.8-59.8 59.8c-10.1 10.1-10.1 26.5 0 36.6 10.1 10.1 26.5 10.1 36.6 0l59.8-59.8 59.8 59.8c10.1 10.1 26.5 10.1 36.6 0 10.1-10.1 10.1-26.5 0-36.6l-59.8-59.8 59.8-59.8c10.1-10.1 10.1-26.5 0-36.6-10.1-10.1-26.5-10.1-36.6 0l-59.8 59.8-59.8-59.8z" fill="#1296db"/>
</svg>
