<?xml version="1.0" standalone="no"?>
<!DOCTYPE svg PUBLIC "-//W3C//DTD SVG 1.1//EN" "http://www.w3.org/Graphics/SVG/1.1/DTD/svg11.dtd">
<svg t="1776480000000" class="icon" viewBox="0 0 1024 1024" version="1.1" xmlns="http://www.w3.org/2000/svg" width="200" height="200">
  <path d="M256 400c0-22.1 17.9-40 40-40h108.7l149.3-120v524l-149.3-120H296c-22.1 0-40-17.9-40-40V400z" fill="#1296db"/>
  <path d="M676.2 341.6c-10.1-10.1-26.5-10.1-36.6 0-10.1 10.1-10.1 26.5 0 36.6 34.1 34.1 55.4 80.9 55.4 132.1s-21.3 98-55.4 132.1c-10.1 10.1-10.1 26.5 0 36.6 10.1 10.1 26.5 10.1 36.6 0C721.5 633 748.8 570.1 748.8 510.3s-27.3-122.7-72.6-168.7z" fill="#1296db"/>
  <path d="M748.7 268.4c-10.1-10.1-26.5-10.1-36.6 0-10.1 10.1-10.1 26.5 0 36.6 52.9 53 85.4 126.5 85.4 206.9s-32.5 153.9-85.4 206.9c-10.1 10.1-10.1 26.5 0 36.6 10.1 10.1 26.5 10.1 36.6 0 63.5-63.7 102.7-151.6 102.7-243.5s-39.2-179.7-102.7-243.5z" fill="#1296db"/>
</svg>
